<svg xmlns="http://www.w3.org/2000/svg" viewBox="0 0 720 760" role="img" aria-labelledby="title description">
  <title id="title">Gulf of Suez and Red Sea service coverage base map</title>
  <desc id="description">Indicative Natural Earth map showing the western Red Sea service corridor and seven city markers.</desc>
  <rect width="720" height="760" rx="24" fill="#d9edf3"/>
  <g stroke="#8bb9c8" stroke-width="1" opacity=".22">
    <path d="M0 190H720M0 380H720M0 570H720"/><path d="M180 0V760M360 0V760M540 0V760"/>
  </g>
  <path d="M 720.0 760.0 L 0.0 760.0 L 0.0 0.0 L 720.0 0.0 L 720.0 370.1 L 716.1 369.9 L 711.1 368.9 L 707.7 366.6 L 698.7 355.2 L 695.5 352.3 L 689.3 347.9 L 678.9 334.2 L 667.7 323.6 L 661.0 319.0 L 652.8 315.1 L 649.1 312.9 L 646.9 309.2 L 642.6 305.3 L 639.8 300.1 L 637.3 300.5 L 635.3 299.5 L 632.0 296.7 L 622.9 292.3 L 611.5 284.6 L 607.5 280.4 L 607.0 279.8 L 606.9 278.9 L 607.2 278.3 L 608.5 277.1 L 608.9 276.4 L 608.2 275.3 L 604.8 272.6 L 592.9 265.2 L 586.2 262.8 L 584.5 262.0 L 581.2 259.8 L 577.4 256.5 L 573.1 254.3 L 567.7 249.0 L 566.2 246.9 L 565.7 245.2 L 565.6 242.2 L 564.7 240.6 L 563.6 239.5 L 558.9 236.9 L 556.3 234.7 L 552.7 229.6 L 549.8 227.4 L 548.5 226.9 L 545.6 226.4 L 544.5 226.0 L 543.7 225.4 L 543.1 224.2 L 541.7 222.7 L 541.0 220.3 L 539.7 219.1 L 532.4 214.8 L 530.1 212.7 L 528.8 211.9 L 526.6 211.4 L 519.7 208.5 L 519.7 209.1 L 518.8 209.1 L 517.2 208.0 L 519.0 207.2 L 522.2 206.4 L 524.7 205.6 L 526.2 206.0 L 526.0 205.6 L 524.7 204.2 L 523.8 204.1 L 519.9 203.6 L 518.8 203.4 L 517.8 203.4 L 517.8 203.9 L 517.0 203.9 L 516.4 203.4 L 515.6 202.9 L 514.6 202.4 L 513.5 202.2 L 511.0 202.3 L 509.7 202.2 L 508.0 201.3 L 501.4 198.8 L 500.0 199.4 L 498.4 199.3 L 496.9 199.3 L 497.3 199.8 L 497.8 200.2 L 498.5 200.5 L 497.0 200.1 L 495.5 199.6 L 493.8 199.3 L 492.1 199.7 L 490.7 200.2 L 486.4 200.8 L 485.3 201.2 L 484.4 201.6 L 483.9 202.2 L 483.0 202.2 L 483.0 201.7 L 482.0 201.7 L 480.1 201.9 L 477.3 201.6 L 474.4 201.7 L 472.4 202.8 L 472.1 202.4 L 471.9 202.4 L 471.4 202.2 L 471.4 201.7 L 472.4 201.7 L 472.4 201.0 L 471.9 200.5 L 472.6 200.0 L 473.9 199.6 L 475.2 199.4 L 473.9 199.1 L 472.5 199.0 L 471.1 199.1 L 469.5 199.4 L 469.5 199.9 L 470.5 199.9 L 470.5 200.5 L 468.9 200.8 L 467.9 201.4 L 466.6 202.8 L 466.1 202.5 L 465.7 202.4 L 465.2 202.3 L 464.7 202.2 L 465.3 201.7 L 466.1 201.2 L 467.2 200.8 L 468.6 200.5 L 468.5 200.2 L 468.5 199.8 L 468.6 199.4 L 466.6 199.3 L 465.0 199.5 L 464.0 200.0 L 463.7 201.0 L 462.9 200.8 L 462.7 200.8 L 462.5 200.9 L 461.8 201.0 L 461.7 200.8 L 461.8 200.2 L 461.8 199.9 L 460.9 199.9 L 460.9 200.5 L 459.8 200.5 L 459.1 199.8 L 458.4 199.4 L 457.8 199.5 L 456.9 199.9 L 455.6 199.4 L 455.3 199.2 L 454.4 198.5 L 453.9 198.1 L 453.1 197.1 L 452.7 197.3 L 452.1 197.5 L 451.6 197.8 L 451.1 198.2 L 449.2 197.5 L 448.7 197.9 L 448.6 198.7 L 448.2 199.4 L 447.1 199.7 L 445.2 200.1 L 444.3 200.5 L 444.3 201.0 L 447.3 202.2 L 447.3 202.8 L 446.4 202.9 L 446.0 203.0 L 445.8 203.2 L 445.5 203.4 L 444.3 202.8 L 443.6 204.2 L 443.5 205.3 L 442.6 206.0 L 439.5 206.3 L 439.7 205.9 L 439.9 205.8 L 440.1 205.8 L 440.5 205.6 L 439.5 205.1 L 438.9 203.9 L 438.6 202.8 L 438.5 200.8 L 437.5 200.2 L 434.0 200.9 L 434.7 199.9 L 433.8 199.4 L 435.9 197.8 L 437.2 197.2 L 438.4 196.9 L 438.5 196.5 L 439.4 196.2 L 440.6 195.6 L 441.4 195.4 L 440.5 194.8 L 440.9 194.4 L 441.5 194.0 L 442.2 193.8 L 443.3 193.7 L 443.3 194.1 L 443.0 194.1 L 442.6 194.1 L 442.4 194.2 L 443.8 194.6 L 444.9 194.8 L 445.8 194.5 L 446.2 193.7 L 445.5 193.7 L 445.5 193.1 L 444.4 192.6 L 444.6 192.0 L 445.7 191.6 L 447.3 191.3 L 447.3 190.8 L 446.8 190.0 L 448.2 186.2 L 448.7 186.4 L 449.7 186.6 L 450.2 186.8 L 450.1 186.5 L 450.2 185.6 L 449.4 185.9 L 449.0 186.1 L 448.2 185.6 L 451.0 184.2 L 453.9 181.4 L 456.1 178.4 L 457.6 174.5 L 460.3 172.3 L 461.4 169.8 L 462.4 168.4 L 466.4 164.8 L 465.3 161.0 L 465.0 157.1 L 462.8 153.3 L 465.4 148.2 L 467.3 145.5 L 469.5 143.3 L 469.5 142.8 L 468.6 142.8 L 471.0 140.6 L 471.3 139.6 L 470.5 138.7 L 470.5 138.1 L 472.1 135.6 L 471.8 134.5 L 469.5 134.1 L 469.5 133.6 L 471.5 131.8 L 473.8 128.3 L 474.9 124.8 L 473.3 122.7 L 473.3 121.5 L 474.9 120.0 L 476.3 118.2 L 479.1 110.7 L 479.7 109.6 L 481.3 107.7 L 481.1 107.2 L 481.3 106.0 L 482.7 105.3 L 485.9 104.4 L 485.0 103.0 L 484.6 101.1 L 485.1 99.9 L 486.8 100.4 L 486.9 100.1 L 487.0 99.9 L 487.2 99.7 L 487.8 99.8 L 486.8 98.6 L 486.4 97.1 L 487.0 95.9 L 488.8 95.2 L 489.7 87.6 L 490.7 85.4 L 493.8 82.0 L 493.7 80.7 L 490.7 79.2 L 488.8 79.2 L 488.7 78.9 L 488.7 78.7 L 488.5 78.5 L 487.8 78.6 L 487.2 79.7 L 486.4 80.4 L 483.9 82.0 L 482.8 82.9 L 482.2 83.5 L 482.0 84.0 L 481.5 84.4 L 480.4 84.4 L 479.1 84.3 L 478.1 84.3 L 476.5 84.8 L 475.3 85.3 L 474.3 85.8 L 473.3 86.6 L 472.5 87.6 L 472.1 88.5 L 471.3 89.1 L 469.5 89.5 L 470.0 89.6 L 470.4 89.6 L 470.6 89.7 L 470.5 90.1 L 469.3 90.4 L 468.4 90.9 L 468.0 91.3 L 468.6 91.8 L 467.2 91.9 L 466.6 92.2 L 466.7 92.5 L 467.6 92.9 L 466.0 93.7 L 462.7 96.4 L 462.0 96.7 L 460.5 97.1 L 459.8 97.5 L 459.2 98.0 L 458.8 98.4 L 458.1 98.9 L 456.9 99.3 L 456.9 99.8 L 458.2 100.9 L 457.7 102.1 L 456.6 103.3 L 455.9 104.4 L 455.9 108.7 L 455.1 109.7 L 453.5 110.5 L 451.8 111.0 L 451.1 111.5 L 450.9 112.7 L 450.4 114.0 L 449.5 115.3 L 448.2 116.4 L 448.5 117.3 L 448.2 122.4 L 448.5 123.2 L 449.9 124.2 L 450.2 125.2 L 449.7 126.2 L 448.7 126.7 L 447.4 126.9 L 444.2 128.0 L 443.8 128.4 L 443.3 129.6 L 443.4 130.1 L 444.1 131.8 L 444.3 136.7 L 440.5 138.1 L 440.5 138.7 L 440.9 139.4 L 441.4 140.6 L 441.4 141.8 L 440.5 142.8 L 441.0 143.1 L 441.5 143.4 L 442.4 144.4 L 441.1 144.9 L 440.9 145.3 L 441.2 145.8 L 441.4 146.4 L 441.1 147.3 L 440.5 147.9 L 439.8 148.3 L 439.5 148.7 L 438.7 150.2 L 435.4 152.6 L 433.5 156.5 L 427.8 161.0 L 426.0 163.3 L 425.8 163.6 L 425.9 163.8 L 425.7 163.9 L 425.0 163.9 L 426.9 166.4 L 425.2 168.1 L 421.9 169.3 L 419.2 170.8 L 419.6 170.9 L 419.7 171.0 L 420.0 171.4 L 418.1 171.9 L 417.1 173.0 L 415.7 176.7 L 415.2 177.6 L 413.6 179.0 L 413.3 179.1 L 412.8 180.0 L 410.8 182.1 L 410.4 183.1 L 410.5 184.5 L 410.9 185.6 L 411.5 186.5 L 412.3 187.4 L 412.3 187.9 L 411.2 189.3 L 412.4 190.6 L 414.3 191.7 L 415.5 193.1 L 416.8 193.7 L 417.2 194.2 L 417.2 194.8 L 416.8 195.2 L 416.5 195.4 L 416.3 195.7 L 416.2 196.7 L 414.9 199.6 L 413.2 202.0 L 415.6 204.3 L 413.3 210.2 L 414.3 210.8 L 410.7 211.1 L 409.5 211.4 L 409.1 211.9 L 408.6 212.6 L 408.0 213.4 L 406.2 214.0 L 405.3 215.2 L 404.1 215.4 L 403.1 215.5 L 401.1 215.9 L 399.7 216.0 L 400.0 216.3 L 400.0 216.4 L 400.2 216.4 L 400.8 216.6 L 399.7 217.8 L 398.3 220.4 L 396.9 221.1 L 395.9 221.1 L 395.5 220.7 L 394.3 220.5 L 393.4 220.1 L 392.4 220.6 L 391.4 222.5 L 390.1 223.4 L 391.3 224.5 L 389.5 225.4 L 386.8 226.0 L 384.9 226.2 L 383.5 226.2 L 383.2 226.2 L 383.7 227.5 L 384.2 228.0 L 389.3 228.0 L 389.3 228.6 L 388.2 228.6 L 388.2 229.1 L 388.9 229.5 L 389.4 229.9 L 390.1 230.8 L 388.8 230.5 L 388.2 230.3 L 388.4 230.6 L 388.4 230.7 L 388.6 230.8 L 389.3 230.8 L 389.3 231.5 L 388.2 231.5 L 387.5 230.7 L 385.1 229.0 L 382.4 227.5 L 381.2 227.0 L 379.7 226.6 L 377.6 226.2 L 364.0 225.4 L 360.6 224.3 L 351.2 218.3 L 350.5 218.0 L 349.2 218.0 L 341.2 214.2 L 339.4 213.7 L 337.5 213.6 L 335.9 214.3 L 334.0 212.0 L 333.0 212.5 L 331.7 211.7 L 326.8 209.5 L 325.7 209.2 L 325.3 209.1 L 324.8 208.8 L 324.3 208.0 L 323.8 207.7 L 322.8 207.3 L 321.8 207.1 L 319.5 206.8 L 319.6 204.7 L 312.8 202.5 L 312.8 201.0 L 310.8 200.1 L 308.4 198.4 L 306.7 196.6 L 307.0 195.4 L 306.3 195.1 L 305.7 195.0 L 305.3 194.7 L 305.0 194.2 L 304.1 194.2 L 304.1 194.8 L 303.1 194.8 L 302.6 194.4 L 301.4 193.6 L 301.1 193.4 L 299.0 189.3 L 298.3 188.7 L 297.3 189.1 L 296.2 187.9 L 292.9 185.3 L 291.5 184.0 L 273.0 178.2 L 272.1 177.3 L 271.5 177.2 L 268.3 174.2 L 265.5 172.9 L 263.9 171.8 L 263.9 171.4 L 254.8 167.9 L 253.4 167.1 L 252.7 166.5 L 252.3 165.8 L 251.1 164.7 L 249.6 163.8 L 247.9 163.3 L 248.8 162.7 L 248.8 163.3 L 249.9 163.3 L 248.9 160.6 L 246.5 160.4 L 245.3 161.5 L 247.9 162.7 L 245.6 162.3 L 244.1 161.2 L 243.3 159.7 L 242.7 156.3 L 241.8 154.9 L 239.3 152.4 L 240.7 150.7 L 242.5 146.9 L 244.0 145.0 L 242.2 143.9 L 241.4 143.2 L 240.7 141.5 L 239.6 141.1 L 238.4 140.9 L 237.3 140.4 L 236.4 138.9 L 236.0 135.2 L 235.4 134.1 L 235.4 133.6 L 236.6 132.8 L 236.8 132.1 L 236.3 130.2 L 236.0 129.7 L 235.4 128.5 L 235.2 127.3 L 235.8 126.7 L 236.9 126.1 L 235.9 125.0 L 234.2 124.1 L 233.4 124.2 L 233.1 123.3 L 232.2 122.6 L 231.0 122.4 L 229.6 122.7 L 228.1 121.7 L 224.3 120.6 L 222.9 119.9 L 221.1 117.8 L 220.8 117.3 L 220.4 116.8 L 218.3 116.0 L 217.9 115.6 L 217.4 115.4 L 215.1 113.5 L 214.6 113.4 L 213.5 113.1 L 213.1 113.0 L 212.8 112.7 L 212.5 112.0 L 212.2 111.8 L 205.8 108.4 L 203.6 108.0 L 200.4 107.1 L 197.5 106.0 L 195.6 105.0 L 194.8 103.7 L 194.2 101.9 L 193.2 100.4 L 191.3 99.8 L 190.0 99.5 L 189.1 98.9 L 186.2 95.3 L 186.0 95.2 L 186.5 92.1 L 186.0 90.7 L 182.2 89.7 L 175.3 87.2 L 176.4 87.2 L 175.8 86.6 L 175.2 86.3 L 174.5 86.2 L 173.4 86.1 L 173.8 85.9 L 174.2 85.7 L 174.4 85.4 L 174.3 84.9 L 173.4 84.9 L 172.8 85.6 L 172.4 86.2 L 172.6 86.8 L 173.4 87.2 L 171.5 87.2 L 172.6 84.1 L 172.8 80.2 L 171.2 76.8 L 166.7 75.2 L 166.7 74.7 L 167.6 73.6 L 167.4 72.5 L 166.9 71.2 L 166.7 70.0 L 167.1 68.8 L 168.3 67.1 L 168.5 66.3 L 168.4 64.9 L 168.1 64.0 L 167.5 63.3 L 166.7 62.6 L 163.3 60.4 L 162.8 59.4 L 162.1 58.9 L 158.9 57.2 L 155.9 56.4 L 156.6 55.6 L 158.1 54.9 L 158.9 54.6 L 158.9 52.3 L 157.1 50.6 L 151.3 47.7 L 152.5 47.3 L 153.1 46.9 L 153.0 46.5 L 152.2 46.0 L 153.0 45.9 L 153.2 45.7 L 153.0 45.6 L 152.2 45.4 L 151.6 44.9 L 150.9 44.5 L 150.1 44.1 L 149.9 43.7 L 150.0 43.5 L 150.5 43.3 L 151.1 43.2 L 152.2 43.1 L 152.2 42.6 L 151.8 42.0 L 151.8 41.5 L 152.2 40.8 L 151.3 40.8 L 149.4 42.8 L 149.3 43.7 L 149.7 44.4 L 150.4 44.8 L 151.1 45.5 L 151.3 46.6 L 150.2 46.6 L 149.9 45.5 L 148.8 44.9 L 147.2 44.9 L 145.4 45.4 L 143.1 45.0 L 140.3 45.9 L 137.9 47.4 L 136.7 48.8 L 136.5 50.4 L 137.4 51.6 L 139.3 52.5 L 142.5 52.9 L 140.0 53.9 L 128.2 62.5 L 127.5 63.1 L 126.0 63.9 L 122.0 67.8 L 121.1 69.2 L 121.0 72.6 L 120.2 74.0 L 118.3 75.2 L 118.3 75.8 L 119.8 76.4 L 121.4 77.6 L 122.6 78.7 L 123.8 80.5 L 125.3 81.4 L 132.5 83.8 L 134.3 84.6 L 140.8 88.5 L 145.2 89.9 L 149.2 92.0 L 152.6 94.4 L 154.1 96.1 L 154.6 98.1 L 156.1 100.9 L 157.9 103.5 L 159.9 105.0 L 159.9 105.5 L 159.3 107.0 L 163.2 115.2 L 163.6 116.0 L 163.7 117.8 L 162.9 118.5 L 161.5 119.2 L 160.8 120.2 L 159.3 120.5 L 158.8 121.3 L 159.9 122.1 L 159.1 124.6 L 158.9 127.6 L 159.8 128.5 L 164.2 130.8 L 165.6 131.8 L 166.1 132.7 L 166.2 134.4 L 166.7 135.2 L 169.9 137.1 L 170.5 137.3 L 176.4 141.6 L 181.3 142.0 L 184.5 143.8 L 186.4 146.3 L 192.7 158.7 L 193.3 160.4 L 194.8 160.7 L 201.5 162.7 L 204.9 164.4 L 206.6 165.6 L 207.9 167.0 L 209.3 167.3 L 210.9 167.5 L 212.2 167.9 L 212.6 168.4 L 213.6 170.1 L 217.7 174.2 L 218.9 174.8 L 219.0 175.2 L 218.8 175.3 L 218.4 175.3 L 217.9 175.3 L 224.1 178.0 L 226.8 179.8 L 226.6 181.6 L 227.7 182.1 L 228.7 183.0 L 229.4 184.0 L 229.6 184.8 L 230.2 185.1 L 233.4 187.4 L 240.1 191.1 L 241.7 192.9 L 243.1 193.4 L 244.8 193.7 L 245.9 194.2 L 246.6 195.3 L 246.5 196.2 L 247.0 196.9 L 249.3 197.1 L 251.7 197.7 L 256.4 200.7 L 259.5 201.7 L 259.3 202.2 L 259.5 202.9 L 259.5 203.4 L 259.2 204.0 L 260.3 204.6 L 261.9 204.8 L 263.4 204.6 L 264.7 205.8 L 267.8 206.5 L 274.1 207.4 L 284.1 212.2 L 287.4 215.8 L 289.0 216.6 L 290.0 217.4 L 293.1 221.3 L 293.4 222.3 L 293.4 222.8 L 294.1 223.4 L 294.6 225.1 L 295.3 225.7 L 295.3 226.2 L 294.4 226.2 L 292.5 226.2 L 290.8 224.4 L 287.5 223.3 L 283.7 222.6 L 280.8 221.7 L 279.8 221.7 L 279.0 222.9 L 278.6 223.6 L 278.9 224.2 L 279.8 225.1 L 282.5 226.5 L 284.0 227.6 L 284.7 228.8 L 285.6 229.5 L 287.6 229.2 L 289.6 228.7 L 290.5 228.8 L 290.3 230.0 L 289.8 231.2 L 288.8 232.3 L 287.5 233.2 L 288.1 233.5 L 288.9 234.0 L 289.5 234.3 L 292.0 235.2 L 292.9 235.4 L 293.3 235.7 L 294.7 237.3 L 295.3 237.7 L 295.3 238.3 L 293.9 237.6 L 290.5 235.4 L 289.5 235.4 L 289.5 236.0 L 290.0 236.5 L 290.5 237.2 L 289.5 237.2 L 288.6 235.6 L 286.1 235.7 L 283.4 236.9 L 281.8 238.3 L 285.1 239.2 L 287.5 240.8 L 291.5 244.6 L 290.9 245.1 L 290.6 245.8 L 290.4 246.6 L 290.5 247.5 L 292.9 248.4 L 299.0 249.9 L 301.1 250.9 L 301.5 251.7 L 301.7 253.5 L 302.2 254.3 L 303.1 255.0 L 305.5 256.4 L 306.5 257.2 L 307.4 258.9 L 308.4 262.6 L 309.4 263.8 L 314.1 266.1 L 319.5 268.1 L 325.5 269.6 L 328.3 270.6 L 330.1 272.0 L 330.4 272.9 L 330.1 276.1 L 329.8 276.4 L 328.5 276.9 L 328.2 277.2 L 328.3 277.7 L 329.0 278.5 L 329.2 278.9 L 329.3 280.8 L 329.9 282.2 L 331.4 283.4 L 334.0 284.4 L 336.4 285.6 L 339.0 287.4 L 340.1 288.8 L 337.9 288.6 L 338.0 290.0 L 338.9 291.1 L 341.8 293.2 L 343.0 294.5 L 344.8 296.9 L 346.1 298.1 L 347.9 298.8 L 350.0 299.4 L 351.7 300.0 L 352.4 300.9 L 353.3 303.6 L 353.4 304.9 L 352.4 305.8 L 350.1 305.9 L 348.5 305.1 L 347.2 304.9 L 345.6 306.4 L 345.3 307.5 L 345.3 309.0 L 345.6 310.5 L 346.1 311.6 L 346.2 313.7 L 343.4 318.8 L 344.7 321.2 L 346.6 322.1 L 351.2 322.9 L 353.4 323.6 L 354.9 324.7 L 356.3 327.3 L 360.9 330.5 L 362.9 332.8 L 367.7 340.2 L 369.8 342.4 L 372.7 344.7 L 374.6 346.8 L 378.0 349.5 L 389.9 364.2 L 395.4 368.5 L 400.8 375.7 L 411.9 383.9 L 412.9 385.0 L 414.3 387.4 L 423.8 394.9 L 428.9 397.9 L 430.1 398.8 L 442.4 411.8 L 444.3 415.7 L 447.7 419.3 L 449.2 423.5 L 451.8 425.8 L 457.9 430.0 L 458.7 431.0 L 460.1 433.5 L 460.9 434.6 L 465.2 438.1 L 466.9 441.7 L 473.4 447.7 L 485.5 459.1 L 486.1 461.7 L 487.6 464.0 L 489.9 465.5 L 492.7 467.3 L 493.1 468.8 L 493.3 471.9 L 493.6 473.5 L 494.4 474.7 L 495.6 475.7 L 497.2 476.4 L 499.4 477.2 L 503.1 479.0 L 505.5 481.4 L 508.8 488.0 L 509.6 489.1 L 512.0 491.3 L 514.7 493.9 L 516.7 494.9 L 516.8 496.2 L 514.5 498.8 L 514.5 501.1 L 520.3 502.3 L 527.4 509.4 L 546.4 517.3 L 549.4 519.2 L 554.6 527.3 L 558.5 529.6 L 563.8 533.8 L 566.2 533.6 L 565.1 532.4 L 563.8 531.2 L 565.3 531.1 L 568.1 532.7 L 572.1 533.6 L 577.2 536.5 L 579.2 538.8 L 579.6 541.3 L 583.9 542.7 L 588.3 542.3 L 591.7 542.8 L 595.4 543.4 L 598.4 544.3 L 600.5 545.5 L 603.5 549.2 L 606.0 551.0 L 605.1 551.8 L 602.9 550.2 L 600.1 548.5 L 598.0 548.4 L 592.9 549.7 L 590.8 550.3 L 587.9 549.7 L 585.3 549.1 L 582.7 548.8 L 580.8 548.9 L 578.6 548.8 L 576.0 548.2 L 575.0 547.5 L 573.4 546.4 L 572.0 546.2 L 571.8 545.7 L 569.7 545.2 L 566.7 544.8 L 565.4 545.3 L 563.5 547.2 L 562.4 549.7 L 563.4 553.7 L 562.1 557.2 L 561.1 559.7 L 562.3 561.9 L 564.9 562.2 L 566.1 563.2 L 566.0 564.4 L 565.6 565.0 L 565.8 566.4 L 565.9 567.4 L 566.1 569.3 L 565.5 572.7 L 565.2 580.0 L 564.9 581.3 L 563.5 583.6 L 563.2 584.9 L 563.8 586.1 L 565.1 587.4 L 568.1 589.7 L 570.5 592.2 L 571.4 593.5 L 572.0 594.8 L 571.8 598.8 L 572.9 602.8 L 574.2 605.9 L 575.2 608.6 L 581.8 614.7 L 583.8 617.1 L 586.5 620.2 L 588.4 627.8 L 589.4 629.2 L 592.3 632.0 L 598.2 636.1 L 601.9 637.2 L 600.2 635.9 L 596.2 632.1 L 599.0 632.1 L 600.8 632.9 L 602.0 634.1 L 603.0 635.5 L 604.5 639.6 L 604.9 640.3 L 607.2 641.2 L 608.4 642.1 L 609.4 643.2 L 611.2 644.3 L 613.8 646.2 L 619.2 648.4 L 624.3 649.6 L 626.9 650.0 L 627.3 650.4 L 629.1 651.1 L 631.0 651.6 L 633.1 651.9 L 640.9 652.2 L 652.3 653.5 L 663.2 655.5 L 667.2 656.8 L 674.1 660.4 L 676.3 662.4 L 677.1 666.3 L 679.5 668.8 L 683.7 670.9 L 688.2 672.7 L 690.3 673.2 L 692.4 673.7 L 692.0 672.4 L 692.7 672.4 L 695.7 674.3 L 695.0 676.7 L 697.4 680.1 L 707.0 682.5 L 711.6 684.0 L 714.8 685.1 L 720.0 687.5 Z M 353.9 249.8 L 357.0 250.4 L 357.9 251.8 L 358.4 253.3 L 360.2 254.3 L 360.2 254.8 L 359.2 254.8 L 357.3 254.6 L 354.8 253.1 L 353.9 252.5 L 350.9 252.0 L 349.6 251.6 L 348.2 250.7 L 346.8 250.2 L 343.6 251.0 L 342.3 250.4 L 341.3 249.4 L 340.7 248.6 L 341.5 248.0 L 342.5 247.7 L 343.5 247.5 L 344.7 247.5 L 347.9 247.7 L 349.0 248.1 L 350.2 248.5 L 351.4 249.0 L 352.1 249.4 Z M 720.0 410.6 L 715.4 409.4 L 712.4 409.0 L 711.4 410.1 L 710.0 409.7 L 707.4 408.4 L 705.6 407.2 L 704.7 405.5 L 705.8 404.0 L 709.3 402.1 L 710.9 401.0 L 712.0 400.6 L 712.3 401.2 L 711.4 402.1 L 709.1 404.0 L 709.3 404.8 L 710.3 405.5 L 711.2 405.9 L 712.1 405.9 L 712.8 406.1 L 713.5 406.6 L 714.6 407.0 L 715.8 407.2 L 719.5 409.2 L 720.0 409.4 Z M 346.6 309.8 L 348.8 309.8 L 349.5 309.8 L 352.3 313.0 L 353.4 314.7 L 353.4 316.7 L 351.5 315.7 L 350.5 314.5 Z M 456.3 212.4 L 456.3 215.6 L 452.4 216.4 L 449.1 215.9 L 446.4 214.6 L 449.2 212.2 Z M 435.5 212.5 L 435.6 212.5 L 437.8 213.6 L 440.5 214.8 L 440.5 215.4 L 435.1 215.6 L 430.2 215.5 L 426.1 214.6 L 423.3 212.7 L 423.0 212.5 L 423.2 211.4 L 422.7 209.8 L 422.0 209.1 L 422.5 208.7 L 422.7 208.6 L 422.7 208.7 L 423.0 209.1 L 423.0 209.1 L 423.5 208.5 L 424.2 208.0 L 425.0 207.6 L 426.0 207.4 L 428.4 208.1 L 429.3 208.5 L 429.8 209.1 L 426.1 209.5 L 424.5 209.9 L 424.0 210.8 L 424.6 211.2 L 425.2 211.5 L 427.6 211.6 L 431.7 211.3 L 433.5 211.0 L 433.8 211.1 L 434.1 211.1 L 434.8 211.7 L 435.4 212.3 Z M 712.1 398.3 L 711.9 397.6 L 711.5 395.8 L 711.9 392.4 L 714.1 389.5 L 717.7 387.7 L 718.7 387.5 L 716.8 388.5 L 715.3 389.8 L 714.1 391.2 L 713.7 392.8 L 714.9 394.3 L 717.6 395.7 L 718.7 395.9 L 719.7 396.0 L 719.6 396.6 L 718.4 397.7 L 717.9 398.8 L 718.1 399.2 L 718.4 399.7 L 719.4 400.1 L 720.0 400.1 L 720.0 401.0 L 719.4 401.2 L 717.6 401.0 L 714.8 399.8 L 713.2 399.2 Z M 664.1 653.9 L 664.1 654.3 L 664.5 654.8 L 663.9 655.1 L 663.7 655.5 L 662.6 654.6 L 661.8 654.2 L 661.5 653.7 L 660.4 653.4 L 659.3 652.8 L 662.7 652.7 Z M 644.3 648.2 L 644.6 648.7 L 644.7 649.1 L 644.0 648.9 L 643.7 648.6 L 643.2 647.8 L 641.4 648.8 L 641.9 649.2 L 641.2 649.7 L 640.7 648.3 L 642.5 647.3 L 643.2 646.4 L 644.6 645.8 L 644.4 646.4 L 644.0 646.8 L 644.2 647.0 L 644.4 647.8 Z M 667.4 643.7 L 669.3 643.9 L 670.6 644.0 L 670.0 644.2 L 668.8 644.2 L 666.8 644.1 L 665.2 644.2 L 664.5 644.4 L 663.1 643.8 L 664.1 643.9 L 665.0 643.7 L 666.1 643.6 L 666.1 643.0 L 665.9 642.5 L 665.5 641.9 L 666.4 642.6 L 666.9 642.9 L 666.9 643.1 L 666.4 643.3 L 666.6 643.7 Z M 594.3 609.1 L 595.5 609.8 L 595.7 610.4 L 594.9 609.9 L 593.4 609.7 L 592.8 609.5 L 592.1 609.0 L 591.3 608.9 L 590.1 608.0 L 589.2 607.6 L 588.6 607.6 L 587.8 607.5 L 587.8 607.8 L 587.4 607.9 L 586.9 607.6 L 585.3 607.5 L 584.0 607.3 L 582.4 607.5 L 580.7 608.2 L 580.1 608.7 L 578.9 608.3 L 579.8 608.8 L 581.2 609.1 L 581.6 609.5 L 580.9 609.4 L 579.6 609.1 L 577.4 608.7 L 577.4 608.6 L 577.5 608.3 L 577.1 608.0 L 576.7 607.7 L 576.3 607.4 L 576.8 607.3 L 577.4 607.3 L 577.8 607.5 L 578.3 607.5 L 579.8 607.2 L 581.1 607.2 L 583.2 607.0 L 584.5 607.0 L 585.6 606.6 L 587.0 606.9 L 588.9 607.1 L 589.7 607.1 L 590.1 607.1 L 590.7 606.8 L 591.7 606.5 L 592.4 606.6 L 592.3 606.9 L 592.6 607.2 L 592.9 607.3 L 593.5 607.9 L 592.8 607.7 L 592.6 608.0 L 593.0 608.3 Z M 662.2 576.9 L 661.5 576.1 L 661.5 575.4 L 661.3 574.3 L 662.3 574.4 L 663.3 574.5 L 664.1 574.9 L 664.4 575.0 L 664.2 576.1 Z M 604.2 284.3 L 604.1 284.8 L 604.9 285.7 L 602.1 284.0 L 600.1 282.9 L 600.1 282.5 L 600.1 281.8 L 599.7 281.0 L 600.6 280.9 L 601.9 281.9 L 603.4 283.1 L 603.7 283.5 Z" fill="#e9ece5" fill-rule="evenodd" stroke="#819d9b" stroke-width="1.35" stroke-linejoin="round"/>
  <polyline points="115.3,75.1 222.9,178.9 307.5,259.4 326.3,270.8 343.9,313.2 392.2,367.1 477.0,453.7" fill="none" stroke="#0872ad" stroke-width="3" stroke-linecap="round" stroke-linejoin="round" stroke-dasharray="4 9" opacity=".72"/>
  <g id="ain-sokhna" transform="translate(115.3 75.1)"><circle r="10" fill="#e21f2f" opacity=".14"/><circle r="4.5" fill="#e21f2f" stroke="#fff" stroke-width="2"/></g><g id="ras-ghareb" transform="translate(222.9 178.9)"><circle r="10" fill="#e21f2f" opacity=".14"/><circle r="4.5" fill="#e21f2f" stroke="#fff" stroke-width="2"/></g><g id="el-gouna" transform="translate(307.5 259.4)"><circle r="10" fill="#e21f2f" opacity=".14"/><circle r="4.5" fill="#e21f2f" stroke="#fff" stroke-width="2"/></g><g id="hurghada" transform="translate(326.3 270.8)"><circle r="10" fill="#e21f2f" opacity=".14"/><circle r="4.5" fill="#e21f2f" stroke="#fff" stroke-width="2"/></g><g id="safaga" transform="translate(343.9 313.2)"><circle r="10" fill="#e21f2f" opacity=".14"/><circle r="4.5" fill="#e21f2f" stroke="#fff" stroke-width="2"/></g><g id="quseir" transform="translate(392.2 367.1)"><circle r="10" fill="#e21f2f" opacity=".14"/><circle r="4.5" fill="#e21f2f" stroke="#fff" stroke-width="2"/></g><g id="marsa-alam" transform="translate(477.0 453.7)"><circle r="10" fill="#e21f2f" opacity=".14"/><circle r="4.5" fill="#e21f2f" stroke="#fff" stroke-width="2"/></g>
</svg>